<svg width="218" height="38" viewBox="0 0 218 38" fill="none" xmlns="http://www.w3.org/2000/svg">
<path d="M1.72461 37.25C1.22461 37.8 0.474609 37.55 0.324609 36.9C0.224609 36.4 0.224609 35.9 0.224609 35.45C0.174609 33.15 0.624609 31 1.07461 28.8C1.97461 24.3 3.47461 19.95 4.87461 15.6L8.02461 5.6C8.22461 5.05 8.37461 4.45 8.72461 3.95C8.97461 3.6 9.32461 3.5 9.57461 3.65C9.87461 3.85 9.97461 4.15 9.82461 4.5C9.02461 6.5 8.52461 8.55 7.87461 10.6C6.47461 14.95 5.02461 19.3 3.67461 23.7C2.77461 26.7 2.07461 29.8 1.67461 32.95C1.62461 33.2 1.57461 33.5 1.57461 33.75C1.57461 33.95 1.47461 34.25 1.77461 34.25C2.02461 34.25 2.12461 34 2.22461 33.85C2.42461 33.35 2.67461 32.85 2.87461 32.35C4.02461 29.85 5.12461 27.35 6.27461 24.9C8.17461 20.8 10.3746 16.95 13.0746 13.35C14.3246 11.7 15.6746 10.15 17.3246 8.8C17.7746 8.45 18.2746 8.1 18.7746 7.75C19.0746 7.6 19.3746 7.5 19.6746 7.4C20.4246 7.3 20.9746 7.65 21.1246 8.4C21.2746 9.15 21.1746 9.95 21.0746 10.7C20.7246 12.45 20.2246 14.2 19.6746 15.9C18.9746 18.1 18.2746 20.25 17.7746 22.5C17.5246 23.55 17.2746 24.65 17.2746 25.75C17.2746 25.95 17.2746 26.15 17.4746 26.3C17.7246 26.4 17.9246 26.3 18.0746 26.1C18.6246 25.5 19.1746 24.9 19.6246 24.25C20.8746 22.6 22.0246 21 23.4246 19.5C24.0246 18.8 24.6746 18.15 25.3746 17.5C25.7746 17.15 26.2746 16.9 26.8246 16.85C27.6246 16.8 28.2246 17.1 28.5746 17.8C28.8246 18.3 28.9746 18.8 29.0746 19.35L29.6746 23.75C29.8246 24.65 29.9746 25.55 30.3746 26.4C31.1246 28.05 32.0746 28.3 33.4746 27.2C33.9746 26.8 35.4746 24.6 38.0246 21.25C38.1746 21.15 38.2746 21 38.4246 20.95C38.5746 20.85 38.8246 20.85 39.0246 21C39.2746 21.1 39.3246 21.3 39.2746 21.5C39.1746 21.85 39.0246 22.1 38.8246 22.4C36.5746 25.45 34.2746 28.35 33.3746 28.8C31.9246 29.5 30.9246 29.3 29.8746 28.05C29.3746 27.4 28.9746 26.7 28.8246 25.9C28.5746 24.65 28.3746 23.4 28.1746 22.2C28.0246 21.3 27.9246 20.45 27.7746 19.6C27.7246 19.3 27.6746 19.05 27.5746 18.8C27.3246 18.15 26.8746 18 26.3246 18.45C25.8246 18.8 25.4246 19.25 24.9746 19.65C23.5746 21.2 22.3246 22.8 21.0746 24.5C20.5746 25.2 20.0246 25.9 19.4746 26.55C19.0746 27.05 18.6746 27.45 18.1246 27.75C17.1246 28.35 16.2746 27.95 16.0746 26.8C15.9746 26.4 16.0246 25.95 15.9746 25.65C16.0746 23.9 16.4246 22.35 16.8246 20.85C17.4246 18.7 18.1246 16.55 18.7746 14.4C19.1746 13.05 19.5746 11.7 19.7746 10.3C19.8746 9.95 19.8746 9.55 19.8746 9.15C19.8746 8.95 19.6746 8.9 19.5246 8.95C19.2246 9.05 18.9246 9.25 18.6746 9.4C17.3246 10.45 16.1246 11.65 15.0246 12.95C12.3746 16.25 10.1746 19.8 8.37461 23.6C7.02461 26.4 5.72461 29.25 4.42461 32.1C3.82461 33.35 3.27461 34.65 2.62461 35.9C2.37461 36.4 2.07461 36.85 1.72461 37.25ZM40.2469 17.45C39.7969 17.5 39.4469 17.1 39.3969 16.5C39.3969 15.9 39.6969 15.6 40.2969 15.6C40.8469 15.6 41.2469 15.95 41.2969 16.4C41.2969 16.95 40.7969 17.45 40.2469 17.45ZM39.4469 30.15C38.3469 30.4 37.3469 29.85 36.9969 28.75C36.7969 28.25 36.7969 27.7 36.7969 26.95C37.0469 24.95 37.3969 22.75 38.2469 20.65C38.4469 20.2 38.6469 19.75 38.9969 19.4C39.2469 19.2 39.4969 19.2 39.7469 19.35C39.9469 19.45 40.0469 19.7 39.9969 19.9C39.8969 20.15 39.7969 20.45 39.6969 20.65C38.7469 22.65 38.3969 24.8 38.0969 26.95C38.0469 27.4 38.0969 27.85 38.1969 28.25C38.2969 28.7 38.7469 28.95 39.1969 28.85C39.9469 28.75 40.4969 28.35 41.0969 27.9C42.4469 26.8 43.6469 25.55 44.7969 24.25C45.5969 23.35 46.2969 22.4 47.0969 21.45C47.2969 21.2 47.5469 21 47.7969 20.8C47.9469 20.65 48.1969 20.7 48.3969 20.85C48.5969 21 48.6469 21.2 48.5969 21.45C48.5469 21.65 48.4469 21.85 48.2969 22C46.5469 24.25 44.7969 26.45 42.5969 28.3C42.0969 28.75 41.5469 29.2 40.9469 29.55C40.4469 29.85 39.9469 30.05 39.4469 30.15ZM45.6742 32.8C45.2742 32.7 45.1242 32.4 45.0742 32.05C45.0742 31.65 45.0242 31.2 45.0742 30.75C45.4742 28 46.1242 25.3 47.2742 22.75C47.8242 21.5 48.3242 20.25 48.8742 19C49.0242 18.75 49.1242 18.5 49.2742 18.3C49.4242 18.15 49.6742 18.1 49.8742 18.15C50.1242 18.25 50.2742 18.45 50.2242 18.65C50.2242 19.05 50.1242 19.4 49.9742 19.75C49.5742 20.75 49.1242 21.75 48.6742 22.75C48.0242 24.25 47.4742 25.8 47.0742 27.35C46.9242 27.9 46.7742 28.4 47.0242 28.95H46.9742L47.0242 29L48.9742 25.05C49.6242 23.85 50.3742 22.75 51.3742 21.8C51.7242 21.45 52.1242 21.1 52.5242 20.85C53.1242 20.5 53.7242 20.7 54.0742 21.3C54.2742 21.65 54.4242 22.1 54.6242 22.45C55.1242 23.35 55.7742 23.55 56.6742 23.1C57.6242 22.6 58.5242 21.95 59.3242 21.2C59.5242 21 59.7242 20.85 59.9742 20.7C60.1742 20.6 60.3742 20.65 60.5742 20.8C60.7242 20.95 60.8242 21.2 60.7242 21.4C60.6242 21.65 60.4742 21.9 60.2742 22.05C59.3242 23.05 58.1742 23.8 56.9742 24.4C55.7742 24.95 54.5742 24.65 53.7742 23.55C53.4742 23.15 53.2742 22.75 53.0242 22.35C52.5742 22.35 52.3742 22.6 52.1742 22.85C51.2242 23.8 50.5242 24.9 49.9242 26.05C49.1242 27.65 48.3742 29.25 47.5242 30.9C47.2742 31.4 46.9742 31.95 46.6242 32.45C46.4242 32.75 46.0742 32.9 45.6742 32.8ZM60.6313 29.9C59.3813 29.9 58.4313 29.25 58.0812 28.05C57.8812 27.5 57.7312 26.9 57.7812 26.35C57.7312 25.5 57.9312 24.75 58.1312 24.05C58.7313 22.2 59.6313 20.55 61.0313 19.2C61.7813 18.5 62.5813 17.95 63.5813 17.8C64.8313 17.6 65.5813 18.35 65.4813 19.6C65.3313 20.6 64.8812 21.5 64.2313 22.2C62.9313 23.6 61.5812 25 59.5313 25.25C59.2813 25.3 59.1813 25.5 59.1313 25.7C58.9813 26.3 59.0813 26.9 59.2813 27.45C59.4813 28.35 60.0813 28.75 60.9813 28.6C61.7313 28.45 62.4313 28.15 63.1313 27.8C64.4313 27.1 65.6312 26.25 66.7313 25.25C67.9313 24.15 69.0813 23 70.2813 21.9C70.5813 21.6 70.8813 21.3 71.2313 21C71.4812 20.8 71.7813 20.8 71.9813 21C72.1813 21.2 72.2813 21.45 72.1313 21.75C72.0313 21.95 71.8813 22.1 71.7313 22.25C70.1313 23.9 68.5313 25.5 66.7313 26.95C65.6312 27.85 64.4313 28.65 63.1813 29.25C62.3813 29.6 61.5313 29.9 60.6313 29.9ZM60.1813 23.75C61.5812 23 62.8813 22.1 63.6813 20.7C63.9313 20.3 64.1313 19.95 64.1313 19.55C64.0813 19.2 63.8813 19.1 63.6813 19.15C63.3813 19.2 63.0313 19.35 62.7813 19.5C61.3313 20.45 60.3813 21.85 59.7813 23.45C59.7813 23.55 59.8313 23.7 59.8813 23.7C59.9813 23.75 60.1313 23.8 60.1813 23.75ZM81.6082 21C81.8082 21.1 81.9082 21.3 81.8582 21.55C81.8582 21.75 81.8082 21.95 81.6582 22.15C81.4582 22.55 81.1582 23 80.9082 23.4C78.8082 26.1 76.5582 29.35 74.4582 32.1C73.9082 32.8 73.3082 33.5 72.5582 34.1C71.4082 35.05 70.4582 34.75 69.9582 33.35C69.8582 33.1 69.7582 32.8 69.7082 32.55C69.6582 31.9 69.6582 31.25 69.6582 30.9C69.7082 28.4 70.0582 26.25 70.5082 24.1C70.6082 23.55 70.8582 22.95 70.4082 22.4C70.2082 22.15 70.3582 21.85 70.5582 21.65C71.3082 20.75 71.6582 19.65 71.9582 18.55C73.3582 14.15 75.0582 9.9 77.4582 6C77.8582 5.3 78.3582 4.6 78.8082 3.95C79.0582 3.6 79.4082 3.3 79.7082 3C80.0082 2.75 80.3582 2.6 80.7582 2.8C81.2082 3 81.2582 3.4 81.2082 3.8C81.1082 4.25 81.0082 4.75 80.8082 5.2C80.4582 6.1 80.0582 7 79.6582 7.9C77.8582 11.5 75.9082 15.05 73.7082 18.45C73.2582 19.15 72.9082 19.85 72.6582 20.65C71.8082 23.6 71.2582 26.6 71.0082 29.65C70.9082 30.65 70.8082 31.7 71.1082 32.7C71.2082 33.1 71.5582 33.25 71.8582 33C72.3082 32.55 72.8082 32.1 73.2082 31.55C75.5082 28.6 78.1082 25 80.3082 21.95C80.5082 21.6 80.7082 21.3 80.9582 21.05C81.1582 20.85 81.3582 20.9 81.6082 21ZM79.6582 5.65C79.6582 5.65 79.6082 5.6 79.6082 5.55C79.6082 5.6 79.6082 5.6 79.6582 5.7V5.65ZM75.4082 13C75.2582 13.35 75.2082 13.7 75.3582 14.05V14.1V14.05C75.4082 14.05 75.4082 14.05 75.4082 14.05C76.3582 12.15 77.3082 10.3 78.3082 8.4L79.6582 5.7C79.2582 5.45 79.0582 5.75 78.8582 6C77.5082 8.25 76.3582 10.55 75.4082 13ZM75.3582 14.05C75.3582 14 75.4082 14 75.4082 14.05H75.3582ZM80.225 27.55C79.375 28 78.625 27.5 78.525 26.5C78.525 26.25 78.525 25.95 78.575 25.7C79.125 23.5 80.025 21.45 81.675 19.85C81.875 19.6 82.125 19.4 82.425 19.2C83.325 18.5 84.475 18.25 85.575 19.15C86.025 19.5 86.125 19.45 86.475 19C87.075 18.25 87.625 17.45 88.225 16.65C88.475 16.3 88.725 15.9 88.975 15.6C89.225 15.35 89.475 15.15 89.875 15.35C90.175 15.55 90.275 15.9 90.125 16.35C89.925 16.8 89.675 17.25 89.475 17.7C88.675 19.3 87.975 20.95 87.475 22.7C87.225 23.6 86.975 24.45 86.975 25.4C86.975 25.75 87.175 25.95 87.475 25.8C87.925 25.6 88.375 25.4 88.825 25.15C89.425 24.75 90.075 24.3 90.675 23.8C91.525 23.1 92.275 22.35 93.125 21.65C93.425 21.4 93.675 21.15 93.975 20.95C94.175 20.8 94.425 20.85 94.575 21C94.875 21.2 94.875 21.45 94.775 21.75C94.725 21.9 94.575 22 94.475 22.1C92.875 23.7 91.225 25.2 89.325 26.35C88.725 26.75 88.075 27.1 87.375 27.25C86.275 27.45 85.675 27 85.675 25.85C85.675 25.15 85.775 24.45 85.875 23.75C85.975 23.15 86.125 22.6 86.325 21.85C85.575 22.1 85.375 22.55 85.075 22.9C83.975 24.2 82.825 25.5 81.575 26.6C81.175 26.95 80.725 27.3 80.225 27.55ZM80.075 25.9C80.275 25.95 80.425 25.85 80.525 25.75C82.125 24.4 83.525 22.75 84.825 21.1C84.925 21.05 84.975 20.95 85.025 20.85C85.125 20.55 85.025 20.3 84.825 20.15C84.475 19.9 84.075 19.85 83.725 20C83.425 20.1 83.125 20.3 82.925 20.5C81.325 21.9 80.375 23.7 79.975 25.8C79.975 25.8 80.075 25.85 80.075 25.9ZM94.1645 20.05C94.0145 19.95 93.9145 19.9 93.8645 19.8C93.7145 19.65 94.0645 19.25 94.3145 19.25H94.2645L95.2145 19.1H95.2645H97.2145C98.4145 19.05 99.2645 19 100.064 18.95C100.264 18.95 100.364 18.95 100.464 19C100.664 19.05 100.764 19.2 100.714 19.4C100.714 19.6 100.564 19.75 100.364 19.8C100.214 19.85 99.9645 19.95 99.7645 19.95C97.9145 20 96.1145 20 94.3145 20.05H94.1645ZM105.113 32.5C103.863 32 102.913 31.25 102.213 30.15C101.063 28.4 100.663 26.45 100.713 24C100.713 22.8 100.963 21.25 101.313 19.7C102.163 16 103.463 12.5 105.513 9.3C107.363 6.4 109.763 4.05 112.763 2.35C113.763 1.8 114.813 1.35 115.963 1.05C116.313 0.949997 116.663 0.899998 117.063 0.849999C119.263 0.699998 120.213 2 120.513 3.6C120.713 4.45 120.663 5.35 120.463 6.2C120.213 7.3 119.813 8.4 119.263 9.4C118.213 11.25 116.963 13 115.663 14.65C115.563 14.8 115.463 14.9 115.313 15.05C115.063 15.3 114.613 15.35 114.463 15.1C114.313 14.8 114.463 14.6 114.663 14.4C115.713 13.05 116.663 11.65 117.513 10.2C118.263 9.05 118.813 7.8 119.163 6.5C119.363 5.8 119.463 5.1 119.363 4.4C119.263 2.6 118.213 1.85 116.513 2.25C115.563 2.5 114.663 2.85 113.763 3.3C111.163 4.7 109.013 6.6 107.313 9C105.213 11.9 103.863 15.15 102.913 18.6C102.463 20.2 102.213 21.8 102.013 23.45C101.813 25.3 102.063 27.1 102.963 28.85C103.963 30.8 105.613 31.6 107.763 31.65C108.613 31.65 109.463 31.45 110.313 31.15C113.063 30.2 115.613 28.85 117.813 26.9C119.563 25.4 121.113 23.75 122.613 22C122.913 21.65 123.263 21.25 123.613 20.95C123.813 20.8 124.163 20.8 124.363 21C124.613 21.2 124.613 21.5 124.463 21.75C124.363 21.95 124.213 22.1 124.063 22.3C122.413 24.2 120.713 26.15 118.763 27.8C116.363 29.9 113.663 31.4 110.713 32.4C108.863 33.05 106.963 33.2 105.113 32.5ZM121.651 32.8C121.251 32.7 121.101 32.4 121.051 32.05C121.051 31.65 121.001 31.2 121.051 30.75C121.451 28 122.101 25.3 123.251 22.75C123.801 21.5 124.301 20.25 124.851 19C125.001 18.75 125.101 18.5 125.251 18.3C125.401 18.15 125.651 18.1 125.851 18.15C126.101 18.25 126.251 18.45 126.201 18.65C126.201 19.05 126.101 19.4 125.951 19.75C125.551 20.75 125.101 21.75 124.651 22.75C124.001 24.25 123.451 25.8 123.051 27.35C122.901 27.9 122.751 28.4 123.001 28.95H122.951L123.001 29L124.951 25.05C125.601 23.85 126.351 22.75 127.351 21.8C127.701 21.45 128.101 21.1 128.501 20.85C129.101 20.5 129.701 20.7 130.051 21.3C130.251 21.65 130.401 22.1 130.601 22.45C131.101 23.35 131.751 23.55 132.651 23.1C133.601 22.6 134.501 21.95 135.301 21.2C135.501 21 135.701 20.85 135.951 20.7C136.151 20.6 136.351 20.65 136.551 20.8C136.701 20.95 136.801 21.2 136.701 21.4C136.601 21.65 136.451 21.9 136.251 22.05C135.301 23.05 134.151 23.8 132.951 24.4C131.751 24.95 130.551 24.65 129.751 23.55C129.451 23.15 129.251 22.75 129.001 22.35C128.551 22.35 128.351 22.6 128.151 22.85C127.201 23.8 126.501 24.9 125.901 26.05C125.101 27.65 124.351 29.25 123.501 30.9C123.251 31.4 122.951 31.95 122.601 32.45C122.401 32.75 122.051 32.9 121.651 32.8ZM137.708 17.45C137.258 17.5 136.908 17.1 136.858 16.5C136.858 15.9 137.158 15.6 137.758 15.6C138.308 15.6 138.708 15.95 138.758 16.4C138.758 16.95 138.258 17.45 137.708 17.45ZM136.908 30.15C135.808 30.4 134.808 29.85 134.458 28.75C134.258 28.25 134.258 27.7 134.258 26.95C134.508 24.95 134.858 22.75 135.708 20.65C135.908 20.2 136.108 19.75 136.458 19.4C136.708 19.2 136.958 19.2 137.208 19.35C137.408 19.45 137.508 19.7 137.458 19.9C137.358 20.15 137.258 20.45 137.158 20.65C136.208 22.65 135.858 24.8 135.558 26.95C135.508 27.4 135.558 27.85 135.658 28.25C135.758 28.7 136.208 28.95 136.658 28.85C137.408 28.75 137.958 28.35 138.558 27.9C139.908 26.8 141.108 25.55 142.258 24.25C143.058 23.35 143.758 22.4 144.558 21.45C144.758 21.2 145.008 21 145.258 20.8C145.408 20.65 145.658 20.7 145.858 20.85C146.058 21 146.108 21.2 146.058 21.45C146.008 21.65 145.908 21.85 145.758 22C144.008 24.25 142.258 26.45 140.058 28.3C139.558 28.75 139.008 29.2 138.408 29.55C137.908 29.85 137.408 30.05 136.908 30.15ZM142.385 35.75C141.585 35.25 141.485 34.45 141.585 33.6C141.685 32.95 142.035 32.35 142.385 31.85C143.135 30.75 143.985 29.75 145.035 28.95C145.785 28.35 145.935 27.7 145.935 26.8C145.885 25.3 145.635 23.8 145.335 22.3C145.235 21.65 145.135 21 145.085 20.35C144.935 18.1 145.985 16.5 147.735 15.25C148.435 14.8 149.185 14.7 149.935 14.85C150.135 14.9 150.335 15.05 150.485 15.2C150.735 15.45 150.585 15.9 150.285 16C150.135 16.05 149.985 16.1 149.835 16.05C148.985 16 148.335 16.35 147.785 16.9C147.035 17.6 146.485 18.4 146.385 19.45C146.335 19.95 146.335 20.55 146.435 21.05C146.785 22.85 147.085 24.6 147.235 26.4C147.235 26.5 147.335 26.6 147.485 26.85C147.785 26.7 148.035 26.55 148.235 26.4L155.485 21.3C155.685 21.15 155.935 21 156.135 20.9C156.385 20.75 156.585 20.85 156.735 21C156.985 21.2 157.035 21.5 156.835 21.75C156.635 22.05 156.335 22.3 156.035 22.5C154.735 23.45 153.435 24.35 152.185 25.25L148.035 28.2C147.435 28.6 147.135 29.05 147.035 29.8C146.935 30.95 146.585 32.15 146.085 33.25C145.735 34.05 145.285 34.8 144.635 35.35C143.835 36.05 143.035 36.2 142.385 35.75ZM143.035 34.45C143.185 34.65 143.435 34.6 143.635 34.45C144.585 33.75 145.335 32.15 145.385 30.55C144.185 31.4 143.385 32.45 142.885 33.7C142.835 33.8 142.835 33.95 142.885 34.05C142.885 34.2 142.935 34.35 143.035 34.45ZM156.124 35.35C155.174 35.8 154.424 35.45 154.024 34.5C153.774 33.9 153.724 33.25 153.724 32.6C153.724 31.1 153.974 29.65 154.174 28.2C154.824 24.15 156.074 20.25 157.474 16.4C157.774 15.5 158.124 14.65 158.424 13.8C158.724 12.9 158.574 12.7 157.624 12.8C156.274 12.95 154.924 13.15 153.574 13.3C152.974 13.4 152.374 13.5 151.774 13.4C151.624 13.35 151.474 13.3 151.424 13.1C151.374 12.85 151.474 12.6 151.674 12.55C152.124 12.4 152.574 12.3 153.074 12.2C154.874 11.95 156.674 11.75 158.424 11.55C159.074 11.5 159.424 11.25 159.674 10.7L161.024 7.7C161.474 6.9 161.924 6.1 162.424 5.3C163.174 3.9 164.424 4.2 163.674 5.85C163.124 7.2 162.474 8.5 161.824 9.85C161.674 10.2 161.474 10.5 161.474 11.05C161.924 11.2 162.324 11.15 162.674 11.1C165.474 10.8 169.024 10.55 171.774 10.25C172.374 10.2 172.974 10.25 173.574 10.25C173.824 10.25 173.924 10.5 173.974 10.75C173.974 10.95 173.874 11.2 173.674 11.25C173.224 11.35 172.824 11.4 172.374 11.45L161.624 12.4C160.874 12.45 160.474 12.7 160.174 13.4C158.974 16.1 156.474 23.7 155.774 26.8C155.374 28.45 155.174 30.1 155.024 31.8C154.974 32.55 154.724 33.45 155.474 34.05C156.324 33.95 156.724 33.25 157.224 32.65C159.774 29.5 163.724 23.45 165.174 21.95C165.474 21.55 165.724 21.15 166.274 20.95C166.424 20.9 166.674 20.9 166.824 21C167.074 21.2 167.124 21.5 166.974 21.75C166.974 21.85 166.924 21.95 166.824 22.05C164.624 24.6 160.774 30.5 157.524 34.25C157.174 34.75 156.674 35.1 156.124 35.35ZM167.932 17.45C167.482 17.5 167.132 17.1 167.082 16.5C167.082 15.9 167.382 15.6 167.982 15.6C168.532 15.6 168.932 15.95 168.982 16.4C168.982 16.95 168.482 17.45 167.932 17.45ZM167.132 30.15C166.032 30.4 165.032 29.85 164.682 28.75C164.482 28.25 164.482 27.7 164.482 26.95C164.732 24.95 165.082 22.75 165.932 20.65C166.132 20.2 166.332 19.75 166.682 19.4C166.932 19.2 167.182 19.2 167.432 19.35C167.632 19.45 167.732 19.7 167.682 19.9C167.582 20.15 167.482 20.45 167.382 20.65C166.432 22.65 166.082 24.8 165.782 26.95C165.732 27.4 165.782 27.85 165.882 28.25C165.982 28.7 166.432 28.95 166.882 28.85C167.632 28.75 168.182 28.35 168.782 27.9C170.132 26.8 171.332 25.55 172.482 24.25C173.282 23.35 173.982 22.4 174.782 21.45C174.982 21.2 175.232 21 175.482 20.8C175.632 20.65 175.882 20.7 176.082 20.85C176.282 21 176.332 21.2 176.282 21.45C176.232 21.65 176.132 21.85 175.982 22C174.232 24.25 172.482 26.45 170.282 28.3C169.782 28.75 169.232 29.2 168.632 29.55C168.132 29.85 167.632 30.05 167.132 30.15ZM174.61 27.55C173.76 28 173.01 27.5 172.91 26.5C172.91 26.25 172.91 25.95 172.96 25.7C173.51 23.5 174.41 21.45 176.06 19.85C176.26 19.6 176.51 19.4 176.81 19.2C177.71 18.5 178.86 18.25 179.96 19.15C180.41 19.5 180.51 19.45 180.86 19C181.46 18.25 182.01 17.45 182.61 16.65C182.86 16.3 183.11 15.9 183.36 15.6C183.61 15.35 183.86 15.15 184.26 15.35C184.56 15.55 184.66 15.9 184.51 16.35C184.31 16.8 184.06 17.25 183.86 17.7C183.06 19.3 182.36 20.95 181.86 22.7C181.61 23.6 181.36 24.45 181.36 25.4C181.36 25.75 181.56 25.95 181.86 25.8C182.31 25.6 182.76 25.4 183.21 25.15C183.81 24.75 184.46 24.3 185.06 23.8C185.91 23.1 186.66 22.35 187.51 21.65C187.81 21.4 188.06 21.15 188.36 20.95C188.56 20.8 188.81 20.85 188.96 21C189.26 21.2 189.26 21.45 189.16 21.75C189.11 21.9 188.96 22 188.86 22.1C187.26 23.7 185.61 25.2 183.71 26.35C183.11 26.75 182.46 27.1 181.76 27.25C180.66 27.45 180.06 27 180.06 25.85C180.06 25.15 180.16 24.45 180.26 23.75C180.36 23.15 180.51 22.6 180.71 21.85C179.96 22.1 179.76 22.55 179.46 22.9C178.36 24.2 177.21 25.5 175.96 26.6C175.56 26.95 175.11 27.3 174.61 27.55ZM174.46 25.9C174.66 25.95 174.81 25.85 174.91 25.75C176.51 24.4 177.91 22.75 179.21 21.1C179.31 21.05 179.36 20.95 179.41 20.85C179.51 20.55 179.41 20.3 179.21 20.15C178.86 19.9 178.46 19.85 178.11 20C177.81 20.1 177.51 20.3 177.31 20.5C175.71 21.9 174.76 23.7 174.36 25.8C174.36 25.8 174.46 25.85 174.46 25.9ZM186.949 31.35C186.449 31.7 185.799 31.45 185.749 30.8C185.699 30.6 185.699 30.4 185.699 30.15C185.749 29.75 185.799 29.3 185.899 28.9C186.249 27.6 186.549 26.35 186.949 25.1C187.849 22.6 188.799 20.1 189.749 17.6C189.949 17.1 190.249 16.6 190.499 16.15C190.699 15.8 191.099 15.7 191.349 15.9C191.699 16.1 191.699 16.45 191.599 16.75L191.299 17.35C190.299 19.9 189.349 22.45 188.349 25C188.149 25.6 187.799 26.2 188.099 26.85C189.199 24.85 190.499 23.05 191.999 21.3C192.599 20.65 193.199 20.05 193.999 19.6C194.799 19.15 195.449 19.4 195.899 20.2C196.099 20.6 196.149 21.05 196.199 21.45C196.299 22.3 196.349 23.1 196.449 23.9C196.499 24.45 196.649 25 196.899 25.45C197.049 25.8 197.399 25.9 197.749 25.8C198.349 25.6 198.899 25.2 199.399 24.75C200.249 23.95 201.099 23.1 201.999 22.3C203.099 21.35 203.199 21.15 203.399 21C203.599 20.8 203.849 20.75 204.099 21C204.349 21.2 204.399 21.45 204.299 21.7C204.199 21.95 204.049 22.2 203.849 22.4C202.849 23.4 200.849 25.15 199.799 26.1C199.249 26.6 198.549 27 197.799 27.15C196.849 27.3 196.199 27 195.749 26.15C195.449 25.55 195.249 24.95 195.199 24.3C195.099 23.3 194.999 22.35 194.849 21.35C194.799 20.95 194.449 20.8 194.149 21.1C193.649 21.55 193.099 22.05 192.649 22.6C190.849 24.7 189.349 27.05 188.099 29.6C187.799 30.2 187.549 30.9 186.949 31.35ZM202.686 27.55C201.836 28 201.086 27.5 200.986 26.5C200.986 26.25 200.986 25.95 201.036 25.7C201.586 23.5 202.486 21.45 204.136 19.85C204.336 19.6 204.586 19.4 204.886 19.2C205.786 18.5 206.936 18.25 208.036 19.15C208.486 19.5 208.586 19.45 208.936 19C209.536 18.25 210.086 17.45 210.686 16.65C210.936 16.3 211.186 15.9 211.436 15.6C211.686 15.35 211.936 15.15 212.336 15.35C212.636 15.55 212.736 15.9 212.586 16.35C212.386 16.8 212.136 17.25 211.936 17.7C211.136 19.3 210.436 20.95 209.936 22.7C209.686 23.6 209.436 24.45 209.436 25.4C209.436 25.75 209.636 25.95 209.936 25.8C210.386 25.6 210.836 25.4 211.286 25.15C211.886 24.75 212.536 24.3 213.136 23.8C213.986 23.1 214.736 22.35 215.586 21.65C215.886 21.4 216.136 21.15 216.436 20.95C216.636 20.8 216.886 20.85 217.036 21C217.336 21.2 217.336 21.45 217.236 21.75C217.186 21.9 217.036 22 216.936 22.1C215.336 23.7 213.686 25.2 211.786 26.35C211.186 26.75 210.536 27.1 209.836 27.25C208.736 27.45 208.136 27 208.136 25.85C208.136 25.15 208.236 24.45 208.336 23.75C208.436 23.15 208.586 22.6 208.786 21.85C208.036 22.1 207.836 22.55 207.536 22.9C206.436 24.2 205.286 25.5 204.036 26.6C203.636 26.95 203.186 27.3 202.686 27.55ZM202.536 25.9C202.736 25.95 202.886 25.85 202.986 25.75C204.586 24.4 205.986 22.75 207.286 21.1C207.386 21.05 207.436 20.95 207.486 20.85C207.586 20.55 207.486 20.3 207.286 20.15C206.936 19.9 206.536 19.85 206.186 20C205.886 20.1 205.586 20.3 205.386 20.5C203.786 21.9 202.836 23.7 202.436 25.8C202.436 25.8 202.536 25.85 202.536 25.9Z" fill="#FF27AD"/>
</svg>
